<?xml version="1.0" standalone="no"?>
<!DOCTYPE svg PUBLIC "-//W3C//DTD SVG 20010904//EN"
 "http://www.w3.org/TR/2001/REC-SVG-20010904/DTD/svg10.dtd">
<svg version="1.0" xmlns="http://www.w3.org/2000/svg"
 width="597.000000pt" height="597.000000pt" viewBox="0 0 597.000000 597.000000"
 preserveAspectRatio="xMidYMid meet">
<metadata>
Created by potrace 1.11, written by Peter Selinger 2001-2013
</metadata>
<g transform="translate(0.000000,597.000000) scale(0.100000,-0.100000)"
fill="#000000" stroke="none">
<path d="M5405 4450 c-84 -40 -100 -68 -121 -215 -1 -11 -3 -20 -4 -20 -1 0
-3 -11 -5 -25 -3 -27 -10 -66 -25 -145 -30 -153 -29 -201 2 -249 30 -46 76
-75 131 -82 46 -7 76 1 172 41 40 17 149 59 155 61 3 0 14 4 25 9 11 4 46 18
77 31 78 31 112 57 134 101 21 45 21 120 1 160 -15 28 -90 103 -103 103 -4 0
-17 10 -29 23 -12 12 -36 33 -54 47 -18 14 -43 35 -56 46 -13 12 -51 43 -85
69 -89 69 -143 80 -215 45z"/>
<path d="M4568 4270 c-62 -11 -110 -51 -142 -116 -27 -55 -58 -122 -61 -134
-1 -3 -12 -27 -25 -55 -13 -27 -24 -52 -25 -55 0 -3 -13 -31 -27 -63 -15 -32
-30 -73 -33 -91 -15 -77 42 -171 118 -196 39 -12 53 -12 347 15 173 15 212 27
256 78 36 41 51 106 36 161 -11 38 -257 375 -306 418 -17 16 -39 28 -49 28
-10 0 -26 4 -35 8 -9 5 -34 6 -54 2z"/>
<path d="M5365 3490 c-56 -12 -90 -37 -118 -88 -26 -45 -27 -97 -6 -194 10
-45 16 -84 14 -87 -3 -2 0 -10 7 -18 6 -7 8 -16 5 -19 -3 -3 1 -26 8 -51 8
-26 13 -49 13 -52 -3 -13 14 -88 29 -126 28 -75 85 -115 166 -117 48 -1 106
26 157 74 14 13 43 38 65 57 208 176 222 189 239 225 21 44 26 92 14 135 -11
39 -77 111 -101 111 -9 0 -19 5 -22 10 -4 6 -11 8 -16 5 -5 -4 -9 -2 -9 2 0 5
-8 9 -17 10 -10 1 -90 29 -178 62 -173 64 -204 71 -250 61z"/>
<path d="M1430 3304 c-36 -7 -91 -15 -122 -18 -119 -12 -264 -37 -304 -51 -33
-12 -45 -24 -60 -57 -11 -24 -19 -45 -20 -48 -1 -18 -18 -188 -19 -200 -1 -8
-5 -35 -10 -60 -12 -61 -11 -80 11 -247 25 -194 87 -265 254 -289 65 -10 414
-12 438 -3 12 4 28 19 37 33 16 24 16 28 -1 65 -13 29 -23 40 -38 39 -12 0
-93 3 -181 6 -305 13 -305 13 -329 70 -16 40 -30 147 -22 173 4 14 16 19 43
20 84 2 230 12 257 18 40 8 82 40 89 66 4 16 -3 31 -28 56 -33 33 -35 34 -114
31 -45 -2 -81 -5 -81 -8 0 -3 -24 -5 -53 -5 -28 0 -66 -3 -84 -6 l-32 -7 5 62
c6 99 12 147 17 152 3 3 49 12 103 19 55 8 150 21 213 30 148 21 180 38 181
96 0 55 -59 80 -150 63z"/>
<path d="M1904 3248 c-33 -26 -33 -13 -20 -283 20 -446 45 -508 211 -521 203
-15 400 -19 429 -8 27 10 46 62 35 94 -18 51 -48 57 -334 65 -77 2 -143 4
-146 4 -6 1 -12 31 -24 126 -6 39 -15 190 -20 335 -6 149 -11 176 -38 195 -30
21 -58 19 -93 -7z"/>
<path d="M3697 3258 c-9 -7 -17 -26 -17 -43 0 -61 5 -125 11 -125 3 0 5 -10 4
-22 -1 -13 0 -27 4 -33 7 -13 9 -49 16 -315 7 -261 10 -306 29 -407 12 -59 42
-77 103 -61 22 6 35 16 38 31 5 19 0 267 -6 275 -6 8 -4 29 3 45 5 9 5 17 1
17 -4 0 -9 57 -11 128 -2 70 -4 155 -5 189 -1 35 -5 63 -8 63 -3 0 -6 17 -6
38 -1 81 -25 186 -51 215 -18 20 -80 23 -105 5z"/>
<path d="M267 3234 c-4 -5 -20 -10 -35 -12 -15 -2 -30 -9 -34 -15 -4 -7 -8 -9
-8 -5 0 8 -37 -20 -79 -62 -39 -37 -52 -67 -57 -123 -8 -102 51 -167 231 -251
147 -69 164 -79 200 -113 31 -29 36 -39 30 -61 -21 -86 -103 -94 -252 -26 -72
33 -109 39 -140 23 -59 -32 -48 -92 26 -138 137 -83 300 -114 383 -72 86 44
140 132 140 230 1 66 -17 105 -65 148 -38 33 -149 103 -165 103 -5 0 -15 7
-22 15 -7 8 -21 15 -30 15 -10 0 -20 3 -22 8 -1 4 -29 21 -61 37 -67 35 -100
66 -92 86 12 32 67 53 142 54 40 1 73 -2 73 -7 0 -5 4 -7 9 -4 10 6 61 -41 61
-56 0 -18 42 -70 64 -77 27 -10 78 11 87 36 20 54 -17 161 -70 205 -23 20 -91
50 -91 41 0 -3 -6 -1 -12 4 -7 5 -55 9 -105 8 -51 0 -94 4 -96 8 -1 5 -6 5
-10 1z"/>
<path d="M4815 3203 c-58 -11 -74 -24 -80 -67 -6 -40 -2 -189 11 -403 3 -65 2
-103 -4 -103 -19 0 -243 182 -330 268 -87 86 -106 108 -137 156 -38 57 -106
48 -143 -19 -10 -19 -9 -127 1 -190 3 -16 8 -55 12 -85 4 -30 9 -68 12 -85 3
-16 6 -42 7 -57 0 -16 3 -28 6 -28 3 0 6 -12 7 -27 5 -91 35 -145 86 -155 34
-7 76 30 78 67 2 39 1 65 -1 68 -1 1 -4 16 -5 32 -2 17 -6 44 -9 60 -11 52
-18 115 -13 115 3 0 41 -28 85 -62 43 -35 94 -74 112 -88 19 -14 55 -42 82
-63 83 -65 165 -108 216 -113 27 -2 45 4 70 23 l34 26 -7 171 c-10 282 -21
446 -31 503 -7 38 -31 61 -59 56z"/>
<path d="M2848 3183 c-16 -10 -28 -23 -28 -29 0 -7 -5 -14 -10 -16 -10 -3 -18
-226 -22 -640 -1 -143 0 -160 18 -179 26 -30 54 -38 87 -27 47 17 54 44 58
228 l1 95 234 1 c258 0 261 1 270 62 7 45 -10 70 -54 78 -20 4 -129 8 -242 8
l-205 1 0 135 0 135 75 -1 c100 -2 198 -12 218 -23 9 -5 42 -14 73 -21 43 -10
61 -10 78 0 32 17 52 67 38 97 -11 26 -90 66 -152 78 -22 5 -47 10 -55 11 -53
12 -100 16 -220 20 -117 4 -139 2 -162 -13z"/>
<path d="M235 1926 c-70 -31 -89 -165 -32 -224 30 -31 83 -40 119 -21 16 9 23
9 26 0 2 -6 9 -11 16 -11 8 0 12 23 13 75 l1 75 -44 0 c-32 0 -44 -4 -44 -15
0 -10 10 -15 30 -15 17 0 30 -5 30 -12 0 -33 -15 -60 -39 -72 -22 -12 -32 -12
-57 -1 -41 17 -46 27 -50 89 -4 88 37 126 124 113 38 -6 51 8 23 22 -27 15
-80 13 -116 -3z"/>
<path d="M1842 1930 c-48 -20 -72 -63 -72 -130 0 -30 28 -124 30 -97 0 4 9 -2
20 -13 17 -17 32 -21 75 -19 32 2 56 7 59 15 5 13 -20 28 -28 16 -4 -6 -37 -8
-66 -3 -17 3 -56 50 -58 71 -2 14 -4 27 -5 30 -1 3 2 22 6 42 9 44 49 70 100
68 54 -3 61 -1 49 13 -13 16 -78 20 -110 7z"/>
<path d="M2715 1928 c-36 -20 -54 -49 -61 -95 -8 -53 7 -112 35 -137 26 -24
93 -32 131 -16 83 34 90 196 10 243 -32 19 -86 22 -115 5z m111 -41 c23 -20
27 -32 28 -74 1 -64 -17 -98 -59 -110 -34 -11 -85 3 -100 27 -13 21 -14 113
-3 135 27 50 89 60 134 22z"/>
<path d="M3125 1916 c-13 -13 -22 -32 -20 -42 2 -11 4 -25 4 -32 1 -7 30 -27
66 -43 53 -24 65 -33 65 -53 0 -42 -49 -60 -108 -42 -16 5 -22 3 -22 -7 0 -17
30 -27 81 -27 44 0 79 30 79 68 0 40 -18 59 -74 81 -56 21 -75 51 -49 77 12
12 28 15 60 11 48 -5 65 6 34 22 -35 19 -90 13 -116 -13z"/>
<path d="M3715 1928 c-52 -30 -72 -77 -64 -146 10 -74 43 -106 112 -108 28 -1
56 0 64 3 23 9 14 25 -14 23 -91 -6 -120 13 -132 88 -4 28 -4 52 0 52 5 0 9 8
9 19 0 28 39 48 93 49 26 0 50 1 53 1 4 1 1 8 -6 16 -15 18 -86 20 -115 3z"/>
<path d="M3975 1929 c-42 -13 -67 -52 -71 -112 -3 -56 8 -93 36 -119 35 -33
150 -36 150 -4 0 9 -10 11 -37 7 -52 -9 -90 7 -108 46 -23 47 -16 100 17 135
24 25 34 29 72 27 49 -3 69 6 46 21 -18 12 -65 11 -105 -1z"/>
<path d="M4458 1928 c-16 -5 -29 -15 -30 -21 -9 -71 5 -91 85 -116 26 -9 39
-20 43 -38 11 -44 -33 -65 -103 -49 -29 6 -39 -20 -10 -28 63 -17 131 2 141
38 15 54 -10 89 -74 106 -52 14 -75 54 -45 77 13 10 35 13 63 10 30 -3 42 -1
42 8 0 25 -60 32 -112 13z"/>
<path d="M4690 1922 c-16 -13 -23 -29 -22 -50 1 -39 16 -55 64 -71 45 -15 73
-40 73 -66 0 -26 -56 -45 -102 -35 -24 6 -33 4 -33 -5 0 -28 83 -34 130 -10
21 11 30 23 32 47 4 41 -25 72 -83 90 -45 13 -63 41 -47 72 8 15 18 18 59 14
53 -5 72 5 40 21 -31 17 -86 13 -111 -7z"/>
<path d="M474 1831 c3 -117 16 -146 71 -157 72 -13 124 21 126 83 4 147 2 168
-12 171 -13 2 -15 -10 -15 -65 0 -95 -11 -153 -29 -153 -8 0 -15 -4 -15 -8 0
-10 -25 -9 -57 2 -30 10 -37 36 -38 136 -1 69 -4 85 -17 88 -14 3 -15 -10 -14
-97z"/>
<path d="M775 1803 c0 -109 2 -128 16 -131 14 -2 16 14 16 128 0 113 -2 130
-16 130 -14 0 -16 -17 -16 -127z"/>
<path d="M905 1804 l0 -129 55 -3 c65 -4 123 19 139 54 6 14 11 49 11 78 0 44
-5 59 -29 86 -26 30 -34 33 -102 38 l-74 4 0 -128z m143 78 c43 -33 42 -138
-1 -166 -28 -19 -94 -27 -105 -12 -6 9 -8 128 -3 184 2 19 82 15 109 -6z"/>
<path d="M1229 1813 c-23 -65 -47 -124 -52 -130 -7 -9 -4 -13 10 -13 13 0 23
11 31 34 14 37 30 44 93 38 30 -3 37 -9 48 -38 14 -39 47 -49 35 -11 -3 12
-13 34 -20 49 -8 15 -15 31 -15 35 -2 12 -9 31 -33 96 -32 87 -46 78 -97 -60z
m75 46 c1 -8 9 -28 18 -46 18 -36 11 -43 -44 -43 -27 0 -30 3 -24 25 3 13 11
37 18 52 6 15 10 33 9 38 -1 6 3 5 9 -1 6 -6 12 -18 14 -25z"/>
<path d="M1478 1924 c6 -3 9 -10 6 -15 -3 -6 -5 -38 -5 -72 2 -84 2 -87 -1
-127 -2 -26 2 -36 15 -38 15 -3 17 7 14 103 l-2 106 23 -28 c12 -15 28 -40 35
-55 6 -16 15 -28 19 -28 5 0 8 -4 8 -9 0 -15 44 -79 58 -85 20 -9 34 4 29 25
-3 10 0 20 7 23 7 3 8 7 0 13 -11 9 -11 63 0 82 4 6 3 11 -1 11 -5 0 -9 21 -9
48 1 34 -3 47 -13 47 -12 0 -15 -18 -14 -91 0 -50 3 -97 7 -105 18 -34 -41 44
-88 116 -39 62 -57 81 -76 82 -14 1 -19 0 -12 -3z"/>
<path d="M2034 1800 l-1 -131 81 3 c86 3 106 22 26 25 -25 0 -52 1 -60 2 -11
1 -15 13 -15 46 l0 45 63 0 c48 0 62 3 62 15 0 12 -14 15 -63 15 l-63 0 0 40
0 39 66 3 c92 4 81 22 -15 26 l-81 3 0 -131z"/>
<path d="M2402 1918 c3 -7 20 -14 38 -15 18 -2 35 -5 38 -8 2 -2 5 -53 6 -112
1 -87 4 -108 16 -111 13 -2 15 15 14 112 l-1 115 41 3 c77 6 37 23 -60 26 -74
2 -95 0 -92 -10z"/>
<path d="M3361 1916 c-8 -9 -8 -16 -2 -20 6 -4 7 -17 3 -29 -9 -28 -5 -90 9
-147 10 -39 87 -62 138 -41 14 7 31 24 38 39 12 29 17 123 11 200 -1 6 -7 12
-15 12 -10 0 -13 -22 -13 -94 0 -110 -13 -137 -69 -138 -55 -2 -71 29 -71 140
0 90 -6 106 -29 78z"/>
<path d="M4179 1928 c-6 -20 -2 -208 5 -208 5 0 3 -7 -4 -15 -21 -26 0 -35 81
-35 62 0 79 3 79 14 0 12 -14 14 -62 13 l-63 -2 -5 35 c-9 55 -4 60 61 60 46
0 59 3 59 15 0 12 -13 15 -59 15 -64 0 -72 8 -63 58 4 20 10 22 68 22 50 0 64
3 64 15 0 12 -16 15 -80 15 -44 0 -80 -1 -81 -2z"/>
</g>
</svg>
